<svg version="1.1" id="Layer_1" xmlns="http://www.w3.org/2000/svg" xmlns:xlink="http://www.w3.org/1999/xlink" x="0px" y="0px"
	 width="100%" viewBox="0 0 693 461" enable-background="new 0 0 693 461" xml:space="preserve">
<path fill="#000000" opacity="1.000000" stroke="none" 
	d="
M384.000000,462.000000 
	C256.000000,462.000000 128.500031,462.000000 1.000034,462.000000 
	C1.000023,308.333374 1.000023,154.666733 1.000011,1.000075 
	C231.999939,1.000050 462.999878,1.000050 693.999878,1.000025 
	C693.999878,154.666580 693.999878,308.333160 693.999939,461.999878 
	C590.833313,462.000000 487.666656,462.000000 384.000000,462.000000 
M519.926453,339.458954 
	C519.605164,339.346710 519.283936,339.234436 518.586975,338.999329 
	C518.586975,338.999329 518.193726,338.959106 517.810547,338.324829 
	C516.632874,337.804657 515.441895,337.312592 514.279846,336.759491 
	C508.872620,334.185913 503.710449,330.412994 498.019012,329.272369 
	C488.068420,327.278107 478.296967,325.105072 469.010437,320.959106 
	C469.010437,320.959106 469.092773,321.001556 468.921600,320.491089 
	C468.608765,320.375061 468.295929,320.259064 467.578705,320.006927 
	C467.578705,320.006927 467.156128,319.948059 466.783295,319.331818 
	C463.822754,318.261505 460.862183,317.191193 457.363190,315.807037 
	C456.626129,315.528320 455.889069,315.249603 454.914673,314.466461 
	C454.601654,314.282349 454.288605,314.098206 454.003693,313.984619 
	C454.003693,313.984619 454.074432,313.957153 453.691986,313.391205 
	C446.014069,307.547516 438.540955,301.406860 430.606659,295.934967 
	C420.587067,289.024933 409.583344,284.341827 397.517639,281.809662 
	C386.254089,279.445831 375.227783,275.951569 364.558533,273.079102 
	C363.973480,267.244019 363.688324,262.139313 362.866730,257.122467 
	C362.430450,254.458374 361.056641,251.957367 356.951782,253.545410 
	C356.951782,259.136566 356.951782,264.911865 356.951782,270.687164 
	C356.416626,270.929047 355.881439,271.170898 355.346283,271.412781 
	C354.567688,270.212280 353.428894,269.107666 353.079010,267.793060 
	C352.086243,264.063049 348.430481,262.149536 346.986206,264.884064 
	C344.863403,268.903259 341.692963,269.348602 337.935333,269.284393 
	C337.841797,270.713165 337.834442,271.703308 337.703522,272.676819 
	C337.067444,277.406036 338.316895,280.097748 343.873657,280.235840 
	C348.559021,280.352234 353.281158,281.396210 357.869446,282.512726 
	C367.520691,284.861237 377.147614,287.344696 386.685608,290.113556 
	C396.204926,292.876984 406.146271,294.971527 414.904938,299.353516 
	C423.999725,303.903656 432.140686,310.532837 440.243195,316.838257 
	C446.521423,321.724030 453.102203,325.562042 460.646088,328.148895 
	C468.793182,330.942657 476.589386,334.746796 484.692871,337.684753 
	C490.640228,339.840973 496.836243,341.311188 502.980621,343.069733 
	C502.980621,343.069733 502.924072,343.047424 503.322540,343.594543 
	C504.190491,343.781708 505.058441,343.968872 506.281555,344.746521 
	C516.817200,350.381958 527.352905,356.017426 537.525574,361.458710 
	C539.423645,359.360626 540.624756,358.034912 541.823730,356.707275 
	C544.273682,353.994446 544.780090,351.806946 540.686340,349.996368 
	C537.478760,348.577759 534.621155,346.378143 531.435303,344.897156 
	C528.115540,343.353882 524.588684,342.256042 520.942749,340.446167 
	C520.626709,340.273956 520.310730,340.101715 520.008423,340.001404 
	C520.008423,340.001404 520.080322,339.987457 519.926453,339.458954 
M375.473328,162.061478 
	C375.257721,162.359009 375.042145,162.656540 374.328430,163.166550 
	C373.880707,163.715012 373.432983,164.263474 372.378326,165.131958 
	C371.785461,165.714493 371.213379,166.320023 370.596619,166.876083 
	C361.808868,174.799469 362.017731,182.667953 368.458954,190.916000 
	C376.299194,200.955429 384.606537,210.642609 392.162872,220.887085 
	C397.778809,228.500793 401.951263,237.469559 414.898102,237.008423 
	C412.958984,238.254150 412.460938,238.852600 411.959106,238.855789 
	C399.342529,238.936462 386.725616,238.966537 374.108765,238.954239 
	C373.335358,238.953491 372.550995,238.562836 371.790863,238.298584 
	C357.368073,233.284378 342.774506,229.272491 327.266266,229.979980 
	C314.552643,230.560028 303.502808,234.515961 294.800873,244.336441 
	C286.883911,253.271103 288.459106,263.117401 299.059601,268.026215 
	C302.011292,269.393097 305.021973,270.745789 308.142700,271.609650 
	C313.728302,273.155762 319.417999,274.325714 325.350037,275.617004 
	C325.546448,275.479401 325.579498,275.309845 325.723663,274.226379 
	C325.683014,269.143524 325.642365,264.060638 325.778381,258.090027 
	C325.726196,255.381348 325.673981,252.672653 325.717651,249.171646 
	C325.531097,248.687195 325.344574,248.202744 325.259583,247.530182 
	C325.259583,247.530182 324.976105,247.253189 324.707367,246.540421 
	C321.588440,245.375015 318.469543,244.209625 315.350616,243.044220 
	C315.424042,242.371841 315.497437,241.699478 315.570831,241.027115 
	C323.289490,240.989929 331.140472,240.040054 338.695007,241.135132 
	C349.325195,242.676025 359.675842,246.044479 370.253021,248.073883 
	C388.602966,251.594666 407.049561,251.078064 425.349335,247.691925 
	C429.936523,246.843140 434.668518,244.785233 436.877686,239.983505 
	C440.961395,231.107285 440.729950,221.648575 439.524139,212.305725 
	C438.021057,200.659775 435.962463,189.082047 433.975677,177.503693 
	C433.121216,172.524048 431.931091,167.594818 430.687195,162.695068 
	C430.432861,161.693192 429.428619,160.591049 428.478363,160.102600 
	C421.090332,156.304977 413.633606,152.640854 406.192657,148.946442 
	C399.016693,145.383621 388.906921,146.086411 386.582733,135.356018 
	C386.443390,134.712845 384.073181,133.871841 383.223694,134.239151 
	C382.205139,134.679565 381.700256,136.316147 380.981659,137.440308 
	C379.864685,139.187714 379.131592,141.940842 377.580048,142.524414 
	C368.771790,145.837509 359.841980,148.888504 350.795715,151.477325 
	C347.184875,152.510666 343.180481,153.253830 339.866516,149.417664 
	C338.242371,147.537582 335.253174,146.836716 331.985596,145.135620 
	C331.985596,148.282074 331.740875,149.974808 332.029938,151.570892 
	C333.031342,157.100708 331.317871,160.982834 325.779205,162.841904 
	C325.342987,162.988297 325.059814,163.538620 324.642548,163.801117 
	C315.230804,169.722046 305.220093,173.976547 293.892334,173.902557 
	C290.318817,173.879227 286.849915,172.843918 287.011963,167.996979 
	C287.011963,167.996979 287.004761,168.082748 287.511322,167.910751 
	C287.623779,167.598969 287.736237,167.287186 288.119293,166.443405 
	C288.750214,165.697128 289.381134,164.950836 290.622681,163.873367 
	C300.077545,156.066818 308.306702,146.603882 320.548187,141.988205 
	C320.548187,141.988205 320.929291,141.864548 321.485657,141.903305 
	C321.682617,141.606506 321.879578,141.309708 322.007355,141.018829 
	C322.007355,141.018829 322.015991,141.087708 322.710785,141.037064 
	C323.848938,140.381699 324.987091,139.726318 326.063293,139.066193 
	C326.063293,139.066193 326.091156,139.122269 326.821655,139.009857 
	C330.619354,137.135010 334.404816,135.234909 338.217072,133.390152 
	C348.783691,128.276947 359.411438,123.287010 369.915222,118.048248 
	C375.780304,115.123047 381.438141,111.928635 388.276794,115.008034 
	C390.801575,116.144913 393.402832,117.181366 396.061707,117.939156 
	C408.734772,121.551071 421.391388,125.238182 434.147369,128.536774 
	C446.017609,131.606323 458.007629,134.212036 469.941528,137.036209 
	C480.472839,139.528442 491.435120,141.588562 497.589722,151.829742 
	C501.581818,158.472595 504.771423,165.625458 507.973663,172.706680 
	C510.665253,178.658691 512.855530,184.837387 515.462158,191.594849 
	C517.353821,195.713181 519.245483,199.831528 521.011719,204.714920 
	C523.988708,211.518906 526.587524,218.520355 530.017456,225.087814 
	C538.431152,241.198044 547.227844,257.108185 555.910461,273.033051 
	C555.910461,273.033051 555.843689,272.994720 555.973694,273.654572 
	C556.629761,274.483856 557.285767,275.313171 558.051392,276.054565 
	C558.051392,276.054565 557.963745,275.944855 557.985901,276.412506 
	C557.985901,276.412506 558.164978,276.845062 558.247375,277.537201 
	C565.518555,288.027802 572.789795,298.518402 579.583435,308.320038 
	C583.062500,305.081665 585.930298,302.412262 588.977478,299.575928 
	C581.348450,289.526245 573.604065,279.324646 565.818420,268.422943 
	C563.495239,264.686218 561.110779,260.985931 558.860840,257.205597 
	C553.226868,247.739227 547.275574,238.434738 542.169067,228.689346 
	C537.617065,220.002121 534.026306,210.811127 529.985474,201.425537 
	C529.985474,201.425537 529.852844,201.029404 529.938538,200.331543 
	C529.302246,199.154556 528.665894,197.977570 527.704041,196.169937 
	C527.147583,194.448685 526.591125,192.727432 526.000427,190.372971 
	C525.690491,189.887238 525.380615,189.401520 525.016663,188.965103 
	C525.016663,188.965103 525.066101,189.019058 525.007568,188.398056 
	C524.685913,187.919022 524.364258,187.439987 524.093506,186.937973 
	C524.093506,186.937973 524.064087,186.890549 524.015442,186.136169 
	C518.354675,172.452774 512.490356,158.848969 507.098358,145.060471 
	C502.892944,134.306381 494.499054,129.732758 483.898834,128.018646 
	C476.467773,126.817017 468.898987,126.291321 461.573242,124.652290 
	C448.035614,121.623428 434.544281,118.306084 421.198395,114.527153 
	C410.216797,111.417679 399.529968,107.278252 388.591431,103.999191 
	C385.170807,102.973778 381.065002,102.241043 377.786499,103.175842 
	C372.079407,104.803085 366.694794,107.673325 361.311707,110.302322 
	C349.458984,116.090912 337.697754,122.066650 325.886810,127.941116 
	C318.601013,131.564880 310.614441,134.220016 304.157532,138.963821 
	C295.134186,145.593109 287.095154,153.607498 278.923279,161.334167 
	C273.601898,166.365662 274.362000,174.497009 280.062500,178.541031 
	C288.120544,184.257553 297.215393,184.083679 306.195892,182.283890 
	C317.092468,180.100082 326.829773,175.192383 335.077393,167.529068 
	C336.600769,166.113647 338.442902,164.700134 340.385468,164.131927 
	C353.818512,160.202682 367.291382,156.398819 380.833557,152.869720 
	C382.223236,152.507538 384.153381,154.219345 385.151794,155.031311 
	C382.758514,156.973511 380.365204,158.915710 377.352661,160.986099 
	C376.872070,161.316574 376.391479,161.647049 375.992584,162.003586 
	C375.992584,162.003586 376.018585,161.921860 375.473328,162.061478 
z"/>
<path fill="#35AB7F" opacity="1.000000" stroke="none" 
	d="
M325.158020,247.718292 
	C325.344574,248.202744 325.531097,248.687195 325.338318,249.454376 
	C319.184021,247.797043 313.438354,245.759705 307.608948,243.999954 
	C306.458282,243.652573 304.984955,244.373978 303.660431,244.602493 
	C304.127869,245.877670 304.465759,247.224167 305.113098,248.400330 
	C305.480621,249.068008 306.354950,249.456757 306.664062,250.084412 
	C302.743622,252.701553 301.601837,256.374664 300.906586,260.406036 
	C308.288605,262.777252 315.201233,264.997711 323.707794,267.730133 
	C323.336823,263.117767 323.051453,259.569702 323.011139,256.187469 
	C324.038055,257.228088 324.819885,258.102936 325.601685,258.977783 
	C325.642365,264.060638 325.683014,269.143524 325.500305,274.739685 
	C325.276917,275.253021 325.064178,275.652924 325.064178,275.652924 
	C319.417999,274.325714 313.728302,273.155762 308.142700,271.609650 
	C305.021973,270.745789 302.011292,269.393097 299.059601,268.026215 
	C288.459106,263.117401 286.883911,253.271103 294.800873,244.336441 
	C303.502808,234.515961 314.552643,230.560028 327.266266,229.979980 
	C342.774506,229.272491 357.368073,233.284378 371.790863,238.298584 
	C372.550995,238.562836 373.335358,238.953491 374.108765,238.954239 
	C386.725616,238.966537 399.342529,238.936462 411.959106,238.855789 
	C412.460938,238.852600 412.958984,238.254150 414.898102,237.008423 
	C401.951263,237.469559 397.778809,228.500793 392.162872,220.887085 
	C384.606537,210.642609 376.299194,200.955429 368.458954,190.916000 
	C362.017731,182.667953 361.808868,174.799469 370.596619,166.876083 
	C371.213379,166.320023 371.785461,165.714493 372.695251,165.370407 
	C373.438324,168.082153 373.540558,172.431061 377.199402,169.482391 
	C380.567871,166.767715 383.618195,166.816910 387.025757,167.336578 
	C383.606018,170.667648 380.238953,173.584259 377.131561,176.755325 
	C375.090271,178.838455 374.634247,180.832428 376.321442,184.069061 
	C381.875122,194.723160 388.971100,204.215286 397.079376,212.897263 
	C401.912811,218.072647 405.479614,224.939651 412.758148,226.983307 
	C410.907227,227.739548 409.441193,228.477753 407.975159,229.215958 
	C409.310089,230.288818 410.486176,231.866287 412.008026,232.345383 
	C417.933777,234.210846 423.955811,235.780884 429.980408,237.309464 
	C430.755585,237.506149 431.938477,237.043472 432.620697,236.497009 
	C435.806824,233.944885 437.852173,223.995041 436.279327,220.193039 
	C434.732941,216.454987 433.609802,212.534302 431.934143,208.861069 
	C431.297150,207.464661 429.608551,205.582123 428.452209,205.618225 
	C426.781586,205.670380 424.892700,207.005844 423.617767,208.304886 
	C422.873077,209.063660 423.142273,210.817490 422.653137,211.993362 
	C421.295288,212.018936 420.233826,212.143372 419.184875,212.336105 
	C414.405426,213.214279 409.648987,214.258820 404.838135,214.894745 
	C403.688965,215.046661 402.362671,213.858932 401.117859,213.287354 
	C401.730804,212.029312 402.152100,210.613159 403.017883,209.563705 
	C403.699524,208.737427 404.914917,208.336929 405.917969,207.792923 
	C410.367523,205.379745 414.826019,202.982986 419.389069,200.522141 
	C413.806427,195.805023 408.769867,191.867386 404.163971,187.477814 
	C402.637695,186.023193 400.915161,182.754166 401.564331,181.454315 
	C402.951141,178.677368 406.140564,179.270004 408.797394,180.467468 
	C409.688690,180.869156 410.515289,181.411713 411.390106,181.852982 
	C415.674286,184.013931 419.964722,186.162430 425.076721,188.728912 
	C423.891632,182.080276 422.904266,176.540894 422.190369,171.179688 
	C424.197296,171.692429 425.930725,172.026993 427.664185,172.361557 
	C427.679199,169.736435 428.376526,166.840836 427.479248,164.577377 
	C426.837006,162.957275 424.058258,162.184128 422.232758,161.033096 
	C421.636230,163.243011 420.949249,165.434555 420.494476,167.673279 
	C420.344055,168.413651 420.791962,169.275574 420.611267,170.025726 
	C418.087463,168.857224 415.874847,167.821915 413.759125,166.616516 
	C409.438232,164.154755 405.169495,161.601501 401.070587,158.818329 
	C404.118988,155.262405 403.403656,154.105469 399.118164,152.720352 
	C393.921234,151.040634 389.921356,152.232452 385.832764,154.968781 
	C384.153381,154.219345 382.223236,152.507538 380.833557,152.869720 
	C367.291382,156.398819 353.818512,160.202682 340.385468,164.131927 
	C338.442902,164.700134 336.600769,166.113647 335.077393,167.529068 
	C326.829773,175.192383 317.092468,180.100082 306.195892,182.283890 
	C297.215393,184.083679 288.120544,184.257553 280.062500,178.541031 
	C274.362000,174.497009 273.601898,166.365662 278.923279,161.334167 
	C287.095154,153.607498 295.134186,145.593109 304.157532,138.963821 
	C310.614441,134.220016 318.601013,131.564880 325.886810,127.941116 
	C337.697754,122.066650 349.458984,116.090912 361.311707,110.302322 
	C366.694794,107.673325 372.079407,104.803085 377.786499,103.175842 
	C381.065002,102.241043 385.170807,102.973778 388.591431,103.999191 
	C399.529968,107.278252 410.216797,111.417679 421.198395,114.527153 
	C434.544281,118.306084 448.035614,121.623428 461.573242,124.652290 
	C468.898987,126.291321 476.467773,126.817017 483.898834,128.018646 
	C494.499054,129.732758 502.892944,134.306381 507.098358,145.060471 
	C512.490356,158.848969 518.354675,172.452774 523.671265,186.456909 
	C519.283691,185.514297 516.487427,186.679733 515.267700,190.915726 
	C512.855530,184.837387 510.665253,178.658691 507.973663,172.706680 
	C504.771423,165.625458 501.581818,158.472595 497.589722,151.829742 
	C491.435120,141.588562 480.472839,139.528442 469.941528,137.036209 
	C458.007629,134.212036 446.017609,131.606323 434.147369,128.536774 
	C421.391388,125.238182 408.734772,121.551071 396.061707,117.939156 
	C393.402832,117.181366 390.801575,116.144913 388.276794,115.008034 
	C381.438141,111.928635 375.780304,115.123047 369.915222,118.048248 
	C359.411438,123.287010 348.783691,128.276947 338.217072,133.390152 
	C334.404816,135.234909 330.619354,137.135010 326.522125,138.689651 
	C325.741394,136.419434 325.260162,134.469421 324.778931,132.519409 
	C322.043030,134.318954 319.307098,136.118500 316.571198,137.918060 
	C317.763824,139.286575 318.956451,140.655106 320.149078,142.023636 
	C308.306702,146.603882 300.077545,156.066818 290.219055,163.687561 
	C287.004639,159.058060 284.201782,159.350281 281.781555,164.843063 
	C280.864624,166.924042 281.391541,169.641220 281.260345,172.068405 
	C282.961731,170.929993 284.666504,169.796585 286.361053,168.648087 
	C286.630280,168.465576 286.853546,168.215240 287.098053,167.996262 
	C286.849915,172.843918 290.318817,173.879227 293.892334,173.902557 
	C305.220093,173.976547 315.230804,169.722046 324.642548,163.801117 
	C325.059814,163.538620 325.342987,162.988297 325.779205,162.841904 
	C331.317871,160.982834 333.031342,157.100708 332.029938,151.570892 
	C331.740875,149.974808 331.985596,148.282074 331.985596,145.135620 
	C335.253174,146.836716 338.242371,147.537582 339.866516,149.417664 
	C343.180481,153.253830 347.184875,152.510666 350.795715,151.477325 
	C359.841980,148.888504 368.771790,145.837509 377.580048,142.524414 
	C379.131592,141.940842 379.864685,139.187714 380.981659,137.440308 
	C381.700256,136.316147 382.205139,134.679565 383.223694,134.239151 
	C384.073181,133.871841 386.443390,134.712845 386.582733,135.356018 
	C388.906921,146.086411 399.016693,145.383621 406.192657,148.946442 
	C413.633606,152.640854 421.090332,156.304977 428.478363,160.102600 
	C429.428619,160.591049 430.432861,161.693192 430.687195,162.695068 
	C431.931091,167.594818 433.121216,172.524048 433.975677,177.503693 
	C435.962463,189.082047 438.021057,200.659775 439.524139,212.305725 
	C440.729950,221.648575 440.961395,231.107285 436.877686,239.983505 
	C434.668518,244.785233 429.936523,246.843140 425.349335,247.691925 
	C407.049561,251.078064 388.602966,251.594666 370.253021,248.073883 
	C359.675842,246.044479 349.325195,242.676025 338.695007,241.135132 
	C331.140472,240.040054 323.289490,240.989929 315.570831,241.027115 
	C315.497437,241.699478 315.424042,242.371841 315.350616,243.044220 
	C318.469543,244.209625 321.588440,245.375015 324.850586,246.981628 
	C324.993805,247.422821 325.158020,247.718307 325.158020,247.718292 
z"/>
<path fill="#35AB7F" opacity="1.000000" stroke="none" 
	d="
M469.048279,320.874512 
	C478.296967,325.105072 488.068420,327.278107 498.019012,329.272369 
	C503.710449,330.412994 508.872620,334.185913 514.279846,336.759491 
	C515.441895,337.312592 516.632874,337.804657 517.553101,338.653198 
	C514.868164,338.714020 512.364990,338.734863 510.028290,338.121429 
	C504.455048,336.658295 503.649170,337.117065 502.921448,343.087128 
	C496.836243,341.311188 490.640228,339.840973 484.692871,337.684753 
	C476.589386,334.746796 468.793182,330.942657 460.646088,328.148895 
	C453.102203,325.562042 446.521423,321.724030 440.243195,316.838257 
	C432.140686,310.532837 423.999725,303.903656 414.904938,299.353516 
	C406.146271,294.971527 396.204926,292.876984 386.685608,290.113556 
	C377.147614,287.344696 367.520691,284.861237 357.869446,282.512726 
	C353.281158,281.396210 348.559021,280.352234 343.873657,280.235840 
	C338.316895,280.097748 337.067444,277.406036 337.703522,272.676819 
	C337.834442,271.703308 337.841797,270.713165 337.935333,269.284393 
	C341.692963,269.348602 344.863403,268.903259 346.986206,264.884064 
	C348.430481,262.149536 352.086243,264.063049 353.079010,267.793060 
	C353.428894,269.107666 354.567688,270.212280 355.346283,271.412781 
	C355.881439,271.170898 356.416626,270.929047 356.951782,270.687164 
	C356.951782,264.911865 356.951782,259.136566 356.951782,253.545410 
	C361.056641,251.957367 362.430450,254.458374 362.866730,257.122467 
	C363.688324,262.139313 363.973480,267.244019 364.558533,273.079102 
	C375.227783,275.951569 386.254089,279.445831 397.517639,281.809662 
	C409.583344,284.341827 420.587067,289.024933 430.606659,295.934967 
	C438.540955,301.406860 446.014069,307.547516 453.493774,313.694702 
	C451.770630,314.723480 450.245697,315.448700 448.720795,316.173920 
	C449.687317,317.583588 450.347656,319.496674 451.679047,320.306427 
	C455.343292,322.535095 459.193665,324.535004 463.163574,326.150940 
	C465.113098,326.944458 467.490417,326.686981 469.674133,326.905121 
	C469.465546,324.894928 469.256927,322.884705 469.048279,320.874512 
z"/>
<path fill="#36AB7F" opacity="1.000000" stroke="none" 
	d="
M555.870483,273.098846 
	C547.227844,257.108185 538.431152,241.198044 530.017456,225.087814 
	C526.587524,218.520355 523.988708,211.518906 521.388306,204.453979 
	C527.904419,207.322418 528.320007,207.203964 530.011353,201.842453 
	C534.026306,210.811127 537.617065,220.002121 542.169067,228.689346 
	C547.275574,238.434738 553.226868,247.739227 558.860840,257.205597 
	C561.110779,260.985931 563.495239,264.686218 565.432373,268.745605 
	C561.563293,269.445709 556.365112,265.918335 555.870483,273.098846 
z"/>
<path fill="#28A57E" opacity="1.000000" stroke="none" 
	d="
M555.890503,273.065948 
	C556.365112,265.918335 561.563293,269.445709 565.453003,269.095642 
	C573.604065,279.324646 581.348450,289.526245 588.977478,299.575928 
	C585.930298,302.412262 583.062500,305.081665 579.583435,308.320038 
	C572.789795,298.518402 565.518555,288.027802 558.188599,277.081573 
	C558.065979,276.400757 558.010620,276.173706 557.963745,275.944855 
	C557.963745,275.944855 558.051392,276.054565 557.907837,275.786926 
	C557.124084,274.677765 556.483887,273.836243 555.843689,272.994720 
	C555.843689,272.994720 555.910461,273.033051 555.890503,273.065948 
z"/>
<path fill="#28A57F" opacity="1.000000" stroke="none" 
	d="
M502.951050,343.078430 
	C503.649170,337.117065 504.455048,336.658295 510.028290,338.121429 
	C512.364990,338.734863 514.868164,338.714020 517.744690,338.970337 
	C518.193726,338.959106 518.586975,338.999329 518.948914,339.221252 
	C519.555176,339.641846 519.811646,339.823242 520.080322,339.987457 
	C520.080322,339.987457 520.008423,340.001404 520.185120,340.148193 
	C520.625366,340.517822 520.888855,340.740631 521.152405,340.963440 
	C524.588684,342.256042 528.115540,343.353882 531.435303,344.897156 
	C534.621155,346.378143 537.478760,348.577759 540.686340,349.996368 
	C544.780090,351.806946 544.273682,353.994446 541.823730,356.707275 
	C540.624756,358.034912 539.423645,359.360626 537.525574,361.458710 
	C527.352905,356.017426 516.817200,350.381958 505.828674,344.289917 
	C504.558563,343.571381 503.741333,343.309387 502.924072,343.047424 
	C502.924072,343.047424 502.980621,343.069733 502.951050,343.078430 
z"/>
<path fill="#26A47F" opacity="1.000000" stroke="none" 
	d="
M387.188660,167.030197 
	C383.618195,166.816910 380.567871,166.767715 377.199402,169.482391 
	C373.540558,172.431061 373.438324,168.082153 372.998718,165.210388 
	C373.432983,164.263474 373.880707,163.715012 374.785553,162.899902 
	C375.501312,162.396103 375.759949,162.158981 376.018585,161.921860 
	C376.018585,161.921860 375.992584,162.003586 376.223389,161.878067 
	C376.960083,161.454330 377.466003,161.156113 377.971924,160.857910 
	C380.365204,158.915710 382.758514,156.973511 385.492279,155.000046 
	C389.921356,152.232452 393.921234,151.040634 399.118164,152.720352 
	C403.403656,154.105469 404.118988,155.262405 400.758820,158.945404 
	C398.223755,160.238144 396.191772,161.136200 393.957458,162.200806 
	C393.497437,162.603058 393.239746,162.838776 392.984589,163.028076 
	C392.987091,162.981659 393.079895,162.986557 392.898712,163.158569 
	C392.490143,163.574249 392.262787,163.817902 392.023987,164.030579 
	C392.012543,163.999634 392.054199,164.051682 391.785553,164.163452 
	C390.999451,164.538376 390.481964,164.801514 389.973328,165.016327 
	C389.982178,164.967987 390.078857,164.985596 389.891937,165.160797 
	C389.467072,165.580887 389.229095,165.825790 389.000183,166.030304 
	C389.009247,165.989899 389.090057,166.007950 388.886047,166.138702 
	C388.410950,166.449158 388.161865,166.655365 387.752411,166.945648 
	C387.570099,167.003220 387.188660,167.030197 387.188660,167.030197 
z"/>
<path fill="#26A47F" opacity="1.000000" stroke="none" 
	d="
M529.998413,201.634003 
	C528.320007,207.203964 527.904419,207.322418 521.451050,204.071442 
	C519.245483,199.831528 517.353821,195.713181 515.364929,191.255280 
	C516.487427,186.679733 519.283691,185.514297 523.695557,186.834106 
	C524.064087,186.890549 524.093506,186.937973 524.149353,187.227417 
	C524.492126,188.017578 524.779114,188.518326 525.066101,189.019073 
	C525.066101,189.019058 525.016663,188.965103 525.042542,189.155212 
	C525.390503,189.898956 525.712646,190.452576 526.034729,191.006180 
	C526.591125,192.727432 527.147583,194.448685 527.893799,196.826294 
	C528.673279,198.664902 529.263062,199.847153 529.852844,201.029419 
	C529.852844,201.029404 529.985474,201.425537 529.998413,201.634003 
z"/>
<path fill="#25A47E" opacity="1.000000" stroke="none" 
	d="
M469.029358,320.916809 
	C469.256927,322.884705 469.465546,324.894928 469.674133,326.905121 
	C467.490417,326.686981 465.113098,326.944458 463.163574,326.150940 
	C459.193665,324.535004 455.343292,322.535095 451.679047,320.306427 
	C450.347656,319.496674 449.687317,317.583588 448.720795,316.173920 
	C450.245697,315.448700 451.770630,314.723480 453.684998,313.977692 
	C454.074432,313.957153 454.003693,313.984619 454.186462,314.125610 
	C454.630188,314.501343 454.891083,314.736115 455.152008,314.970886 
	C455.889069,315.249603 456.626129,315.528320 457.874146,316.214203 
	C461.308746,317.730255 464.232452,318.839172 467.156128,319.948059 
	C467.156128,319.948059 467.578705,320.006927 467.958008,320.228821 
	C468.583832,320.641663 468.835632,320.825256 469.092773,321.001556 
	C469.092773,321.001556 469.010437,320.959106 469.029358,320.916809 
z"/>
<path fill="#279E79" opacity="1.000000" stroke="none" 
	d="
M307.001038,249.971115 
	C306.354950,249.456757 305.480621,249.068008 305.113098,248.400330 
	C304.465759,247.224167 304.127869,245.877670 303.660431,244.602493 
	C304.984955,244.373978 306.458282,243.652573 307.608948,243.999954 
	C313.438354,245.759705 319.184021,247.797043 325.290405,249.850540 
	C325.673981,252.672653 325.726196,255.381348 325.690063,258.533905 
	C324.819885,258.102936 324.038055,257.228088 322.691345,256.029663 
	C317.084686,253.794388 312.042847,251.882751 307.001038,249.971115 
z"/>
<path fill="#26A47F" opacity="1.000000" stroke="none" 
	d="
M287.054993,167.996613 
	C286.853546,168.215240 286.630280,168.465576 286.361053,168.648087 
	C284.666504,169.796585 282.961731,170.929993 281.260345,172.068405 
	C281.391541,169.641220 280.864624,166.924042 281.781555,164.843063 
	C284.201782,159.350281 287.004639,159.058060 289.913727,163.853149 
	C289.381134,164.950836 288.750214,165.697128 287.830353,166.884491 
	C287.350952,167.569763 287.172058,167.822159 287.004761,168.082748 
	C287.004761,168.082748 287.011963,167.996979 287.054993,167.996613 
z"/>
<path fill="#25A47E" opacity="1.000000" stroke="none" 
	d="
M320.348633,142.005920 
	C318.956451,140.655106 317.763824,139.286575 316.571198,137.918060 
	C319.307098,136.118500 322.043030,134.318954 324.778931,132.519409 
	C325.260162,134.469421 325.741394,136.419434 326.156860,138.745850 
	C326.091156,139.122269 326.063293,139.066193 325.740967,139.081238 
	C324.284393,139.760101 323.150177,140.423904 322.015991,141.087708 
	C322.015991,141.087708 322.007355,141.018829 321.838470,141.140198 
	C321.400452,141.435089 321.153687,141.636078 320.929291,141.864548 
	C320.929291,141.864548 320.548187,141.988205 320.348633,142.005920 
z"/>
<path fill="#35AB7F" opacity="1.000000" stroke="none" 
	d="
M466.969727,319.639954 
	C464.232452,318.839172 461.308746,317.730255 458.143372,316.371155 
	C460.862183,317.191193 463.822754,318.261505 466.969727,319.639954 
z"/>
<path fill="#35AB7F" opacity="1.000000" stroke="none" 
	d="
M322.363403,141.062378 
	C323.150177,140.423904 324.284393,139.760101 325.771912,139.083618 
	C324.987091,139.726318 323.848938,140.381699 322.363403,141.062378 
z"/>
<path fill="#36AB7F" opacity="1.000000" stroke="none" 
	d="
M529.895691,200.680481 
	C529.263062,199.847153 528.673279,198.664902 528.056580,197.141602 
	C528.665894,197.977570 529.302246,199.154556 529.895691,200.680481 
z"/>
<path fill="#36AB7F" opacity="1.000000" stroke="none" 
	d="
M555.908691,273.324646 
	C556.483887,273.836243 557.124084,274.677765 557.853088,275.830872 
	C557.285767,275.313171 556.629761,274.483856 555.908691,273.324646 
z"/>
<path fill="#35AB7F" opacity="1.000000" stroke="none" 
	d="
M503.123291,343.320984 
	C503.741333,343.309387 504.558563,343.571381 505.651123,343.994690 
	C505.058441,343.968872 504.190491,343.781708 503.123291,343.320984 
z"/>
<path fill="#35AB7F" opacity="1.000000" stroke="none" 
	d="
M526.017578,190.689575 
	C525.712646,190.452576 525.390503,189.898956 525.069580,189.130569 
	C525.380615,189.401520 525.690491,189.887238 526.017578,190.689575 
z"/>
<path fill="#35AB7F" opacity="1.000000" stroke="none" 
	d="
M377.662292,160.921997 
	C377.466003,161.156113 376.960083,161.454330 376.182526,161.865051 
	C376.391479,161.647049 376.872070,161.316574 377.662292,160.921997 
z"/>
<path fill="#35AB7F" opacity="1.000000" stroke="none" 
	d="
M525.036865,188.708557 
	C524.779114,188.518326 524.492126,188.017578 524.123901,187.238892 
	C524.364258,187.439987 524.685913,187.919022 525.036865,188.708557 
z"/>
<path fill="#279E79" opacity="1.000000" stroke="none" 
	d="
M325.207092,275.634949 
	C325.064178,275.652924 325.276917,275.253021 325.363037,275.180664 
	C325.579498,275.309845 325.546448,275.479401 325.207092,275.634949 
z"/>
<path fill="#35AB7F" opacity="1.000000" stroke="none" 
	d="
M521.047607,340.704803 
	C520.888855,340.740631 520.625366,340.517822 520.178223,340.112244 
	C520.310730,340.101715 520.626709,340.273956 521.047607,340.704803 
z"/>
<path fill="#35AB7F" opacity="1.000000" stroke="none" 
	d="
M520.003418,339.723206 
	C519.811646,339.823242 519.555176,339.641846 519.136719,339.282684 
	C519.283936,339.234436 519.605164,339.346710 520.003418,339.723206 
z"/>
<path fill="#35AB7F" opacity="1.000000" stroke="none" 
	d="
M375.745972,161.991669 
	C375.759949,162.158981 375.501312,162.396103 375.034607,162.793671 
	C375.042145,162.656540 375.257721,162.359009 375.745972,161.991669 
z"/>
<path fill="#35AB7F" opacity="1.000000" stroke="none" 
	d="
M469.007202,320.746338 
	C468.835632,320.825256 468.583832,320.641663 468.160217,320.296906 
	C468.295929,320.259064 468.608765,320.375061 469.007202,320.746338 
z"/>
<path fill="#35AB7F" opacity="1.000000" stroke="none" 
	d="
M455.033325,314.718689 
	C454.891083,314.736115 454.630188,314.501343 454.172424,314.090332 
	C454.288605,314.098206 454.601654,314.282349 455.033325,314.718689 
z"/>
<path fill="#36AB7F" opacity="1.000000" stroke="none" 
	d="
M557.974854,276.178680 
	C558.010620,276.173706 558.065979,276.400757 558.147400,276.735504 
	C558.164978,276.845062 557.985901,276.412506 557.974854,276.178680 
z"/>
<path fill="#35AB7F" opacity="1.000000" stroke="none" 
	d="
M287.258057,167.996750 
	C287.172058,167.822159 287.350952,167.569763 287.695038,167.150497 
	C287.736237,167.287186 287.623779,167.598969 287.258057,167.996750 
z"/>
<path fill="#279E79" opacity="1.000000" stroke="none" 
	d="
M325.208801,247.624237 
	C325.158020,247.718307 324.993805,247.422821 324.984955,247.338013 
	C324.976105,247.253189 325.259583,247.530182 325.208801,247.624237 
z"/>
<path fill="#35AB7F" opacity="1.000000" stroke="none" 
	d="
M321.207458,141.883926 
	C321.153687,141.636078 321.400452,141.435089 321.873047,141.137238 
	C321.879578,141.309708 321.682617,141.606506 321.207458,141.883926 
z"/>
<path fill="#000000" opacity="1.000000" stroke="none" 
	d="
M394.159821,162.034271 
	C396.191772,161.136200 398.223755,160.238144 400.567505,159.213013 
	C405.169495,161.601501 409.438232,164.154755 413.759125,166.616516 
	C415.874847,167.821915 418.087463,168.857224 420.627686,169.990234 
	C420.999146,170.010971 420.929199,169.976059 421.035950,170.226471 
	C421.437225,170.679123 421.731750,170.881363 422.018372,171.037140 
	C422.010498,170.990707 421.916901,171.001511 421.916901,171.001511 
	C422.904266,176.540894 423.891632,182.080276 425.076721,188.728912 
	C419.964722,186.162430 415.674286,184.013931 411.390106,181.852982 
	C410.515289,181.411713 409.688690,180.869156 408.797394,180.467468 
	C406.140564,179.270004 402.951141,178.677368 401.564331,181.454315 
	C400.915161,182.754166 402.637695,186.023193 404.163971,187.477814 
	C408.769867,191.867386 413.806427,195.805023 419.389069,200.522141 
	C414.826019,202.982986 410.367523,205.379745 405.917969,207.792923 
	C404.914917,208.336929 403.699524,208.737427 403.017883,209.563705 
	C402.152100,210.613159 401.730804,212.029312 401.117859,213.287354 
	C402.362671,213.858932 403.688965,215.046661 404.838135,214.894745 
	C409.648987,214.258820 414.405426,213.214279 419.184875,212.336105 
	C420.233826,212.143372 421.295288,212.018936 422.687408,211.950806 
	C423.023804,212.038544 422.941345,211.967072 422.982941,212.262024 
	C423.343170,213.041306 423.661774,213.525650 423.988983,214.006332 
	C423.997559,214.002686 423.983521,214.017868 423.985962,214.341339 
	C424.315552,215.165298 424.642700,215.665787 424.973389,216.592682 
	C425.284546,220.593521 425.592133,224.167953 425.931732,228.114075 
	C421.110382,227.680984 417.126709,227.323135 413.143036,226.965286 
	C405.479614,224.939651 401.912811,218.072647 397.079376,212.897263 
	C388.971100,204.215286 381.875122,194.723160 376.321442,184.069061 
	C374.634247,180.832428 375.090271,178.838455 377.131561,176.755325 
	C380.238953,173.584259 383.606018,170.667648 387.025757,167.336578 
	C387.188660,167.030197 387.570099,167.003220 388.036865,166.963684 
	C388.699097,166.618744 388.894592,166.313339 389.090057,166.007950 
	C389.090057,166.007950 389.009247,165.989899 389.264221,165.947144 
	C389.705750,165.598114 389.892303,165.291855 390.078857,164.985596 
	C390.078857,164.985596 389.982178,164.967987 390.281006,164.986694 
	C391.071320,164.687500 391.562775,164.369598 392.054199,164.051697 
	C392.054199,164.051682 392.012543,163.999634 392.286072,163.953339 
	C392.733032,163.600220 392.906464,163.293381 393.079895,162.986557 
	C393.079895,162.986557 392.987091,162.981659 393.255737,162.956116 
	C393.736176,162.631821 393.947998,162.333054 394.159821,162.034271 
z"/>
<path fill="#26A47F" opacity="1.000000" stroke="none" 
	d="
M412.758148,226.983307 
	C417.126709,227.323135 421.110382,227.680984 425.931732,228.114075 
	C425.592133,224.167953 425.284546,220.593521 424.888367,216.307098 
	C424.527710,215.069366 424.255615,214.543625 423.983521,214.017868 
	C423.983521,214.017868 423.997559,214.002686 423.868896,213.746094 
	C423.473938,212.982040 423.207642,212.474548 422.941345,211.967072 
	C422.941345,211.967072 423.023804,212.038544 422.989563,212.081100 
	C423.142273,210.817490 422.873077,209.063660 423.617767,208.304886 
	C424.892700,207.005844 426.781586,205.670380 428.452209,205.618225 
	C429.608551,205.582123 431.297150,207.464661 431.934143,208.861069 
	C433.609802,212.534302 434.732941,216.454987 436.279327,220.193039 
	C437.852173,223.995041 435.806824,233.944885 432.620697,236.497009 
	C431.938477,237.043472 430.755585,237.506149 429.980408,237.309464 
	C423.955811,235.780884 417.933777,234.210846 412.008026,232.345383 
	C410.486176,231.866287 409.310089,230.288818 407.975159,229.215958 
	C409.441193,228.477753 410.907227,227.739548 412.758148,226.983307 
z"/>
<path fill="#000100" opacity="1.000000" stroke="none" 
	d="
M306.664062,250.084412 
	C312.042847,251.882751 317.084686,253.794388 322.446289,255.863861 
	C323.051453,259.569702 323.336823,263.117767 323.707794,267.730133 
	C315.201233,264.997711 308.288605,262.777252 300.906586,260.406036 
	C301.601837,256.374664 302.743622,252.701553 306.664062,250.084412 
z"/>
<path fill="#25A47E" opacity="1.000000" stroke="none" 
	d="
M420.982727,170.046448 
	C420.791962,169.275574 420.344055,168.413651 420.494476,167.673279 
	C420.949249,165.434555 421.636230,163.243011 422.232758,161.033096 
	C424.058258,162.184128 426.837006,162.957275 427.479248,164.577377 
	C428.376526,166.840836 427.679199,169.736435 427.664185,172.361557 
	C425.930725,172.026993 424.197296,171.692429 422.190369,171.179688 
	C421.916901,171.001511 422.010498,170.990707 421.833008,170.854370 
	C421.413452,170.470703 421.171326,170.223373 420.929199,169.976044 
	C420.929199,169.976059 420.999146,170.010971 420.982727,170.046448 
z"/>
<path fill="#35AB7F" opacity="1.000000" stroke="none" 
	d="
M391.785553,164.163467 
	C391.562775,164.369598 391.071320,164.687500 390.272186,165.035034 
	C390.481964,164.801514 390.999451,164.538376 391.785553,164.163467 
z"/>
<path fill="#35AB7F" opacity="1.000000" stroke="none" 
	d="
M393.957458,162.200806 
	C393.947998,162.333054 393.736176,162.631821 393.253235,163.002533 
	C393.239746,162.838776 393.497437,162.603058 393.957458,162.200806 
z"/>
<path fill="#35AB7F" opacity="1.000000" stroke="none" 
	d="
M392.898712,163.158569 
	C392.906464,163.293381 392.733032,163.600220 392.297485,163.984283 
	C392.262787,163.817902 392.490143,163.574249 392.898712,163.158569 
z"/>
<path fill="#35AB7F" opacity="1.000000" stroke="none" 
	d="
M389.891968,165.160797 
	C389.892303,165.291855 389.705750,165.598114 389.255157,165.987549 
	C389.229095,165.825790 389.467072,165.580887 389.891968,165.160797 
z"/>
<path fill="#35AB7F" opacity="1.000000" stroke="none" 
	d="
M388.886047,166.138702 
	C388.894592,166.313339 388.699097,166.618744 388.219177,166.906097 
	C388.161865,166.655365 388.410950,166.449158 388.886047,166.138702 
z"/>
<path fill="#35AB7F" opacity="1.000000" stroke="none" 
	d="
M422.982941,212.262024 
	C423.207642,212.474548 423.473938,212.982040 423.860321,213.749756 
	C423.661774,213.525650 423.343170,213.041306 422.982941,212.262024 
z"/>
<path fill="#35AB7F" opacity="1.000000" stroke="none" 
	d="
M423.985962,214.341339 
	C424.255615,214.543625 424.527710,215.069366 424.884827,215.880692 
	C424.642700,215.665787 424.315552,215.165298 423.985962,214.341339 
z"/>
<path fill="#35AB7F" opacity="1.000000" stroke="none" 
	d="
M421.035950,170.226471 
	C421.171326,170.223373 421.413452,170.470703 421.840912,170.900818 
	C421.731750,170.881363 421.437225,170.679123 421.035950,170.226471 
z"/>
</svg>